<svg xmlns="http://www.w3.org/2000/svg" width="1200" height="800" viewBox="0 0 1200 800" fill="none">
  <rect width="1200" height="800" fill="#0b0b0b"/>
  <rect x="40" y="40" width="1120" height="720" stroke="#2a2a2a"/>
  <g stroke="#5a5a5a" stroke-width="2">
    <line x1="120" y1="200" x2="1080" y2="200"/>
    <line x1="120" y1="360" x2="1080" y2="360"/>
    <line x1="120" y1="520" x2="1080" y2="520"/>
  </g>
  <g fill="#f5f5f5">
    <circle cx="160" cy="200" r="8"/>
    <circle cx="160" cy="360" r="8"/>
    <circle cx="160" cy="520" r="8"/>
  </g>
  <g stroke="#f5f5f5" stroke-width="2">
    <line x1="168" y1="200" x2="220" y2="200"/>
    <line x1="168" y1="360" x2="220" y2="360"/>
    <line x1="168" y1="520" x2="220" y2="520"/>
  </g>
  <g stroke="#8a8a8a" stroke-width="2" stroke-linecap="round">
    <line x1="260" y1="190" x2="980" y2="190"/>
    <line x1="260" y1="210" x2="760" y2="210"/>
    <line x1="260" y1="350" x2="980" y2="350"/>
    <line x1="260" y1="370" x2="820" y2="370"/>
    <line x1="260" y1="510" x2="980" y2="510"/>
    <line x1="260" y1="530" x2="880" y2="530"/>
  </g>
  <g fill="#f5f5f5" font-family="Arial, sans-serif" font-size="18" letter-spacing="2">
    <text x="120" y="120">QUOTATION</text>
    <text x="120" y="150" fill="#8a8a8a">SAVE - CURATE - SHARE FLOW</text>
  </g>
  <g fill="#f5f5f5">
    <path d="M920 630c0-22 18-40 40-40h40v120h-80v-80zm120 0c0-22 18-40 40-40h40v120h-80v-80z"/>
  </g>
</svg>
